<svg version="1.1" id="Layer_1" xmlns="http://www.w3.org/2000/svg" xmlns:xlink="http://www.w3.org/1999/xlink" x="0px" y="0px"
	 width="100%" viewBox="0 0 512 512" enable-background="new 0 0 512 512" xml:space="preserve">
<path fill="#FFFFFF" opacity="1.000000" stroke="none" 
	d="
M96.000000,1.000000 
	C234.938293,1.000000 373.876587,1.000000 512.907471,1.000000 
	C512.907471,171.666641 512.907471,342.333313 512.910034,513.000000 
	C495.586975,513.000000 478.261322,513.000000 460.394531,512.536377 
	C459.853333,494.462555 459.853333,476.852356 459.853333,458.751465 
	C470.330811,458.751465 480.397308,458.751465 490.589630,458.751465 
	C490.589630,372.717072 490.589630,287.177094 490.589630,201.142365 
	C480.284607,201.142365 470.221497,201.142365 459.678345,201.142365 
	C459.678345,152.776871 459.678345,104.904076 459.678345,56.580910 
	C446.606628,56.580910 434.021210,56.580910 420.972778,56.580910 
	C420.972778,43.567089 420.972778,31.003462 420.972778,18.267216 
	C414.026306,18.267216 407.556274,18.267216 400.698730,18.145098 
	C399.511475,18.104391 398.711761,18.185804 397.451294,18.219076 
	C298.989349,18.154972 200.988190,18.139008 102.926804,17.704494 
	C103.934616,10.441941 97.836464,6.619394 96.000000,1.000000 
z"/>
<path fill="#020303" opacity="1.000000" stroke="none" 
	d="
M401.086243,18.267216 
	C407.556274,18.267216 414.026306,18.267216 420.972778,18.267216 
	C420.972778,31.003462 420.972778,43.567089 420.972778,56.580910 
	C434.021210,56.580910 446.606628,56.580910 459.678345,56.580910 
	C459.678345,104.904076 459.678345,152.776871 459.678345,201.142365 
	C470.221497,201.142365 480.284607,201.142365 490.589630,201.142365 
	C490.589630,287.177094 490.589630,372.717072 490.589630,458.751465 
	C480.397308,458.751465 470.330811,458.751465 459.853333,458.751465 
	C459.853333,476.852356 459.853333,494.462555 459.926666,512.536377 
	C331.979095,513.000000 203.958206,513.000000 75.391563,512.536865 
	C74.845810,502.499939 74.845810,492.926086 74.845810,483.056641 
	C61.782555,483.056641 49.511856,483.056641 37.167660,483.056641 
	C37.167660,327.977417 37.167660,173.213943 37.167660,18.269836 
	C41.306969,18.269836 45.110214,18.269836 48.899544,18.558853 
	C48.933914,19.230116 48.982197,19.612364 48.651047,20.063999 
	C42.841354,20.437466 42.129303,24.016695 42.131775,28.488382 
	C42.179081,113.977219 42.166847,199.466095 42.166904,284.954956 
	C42.166943,341.280945 42.163864,397.606964 42.170971,453.932953 
	C42.171814,460.618683 43.697304,462.128906 50.381710,462.162567 
	C60.211689,462.212097 70.041733,462.249847 79.921326,462.684082 
	C80.038391,464.392853 80.105873,465.710144 80.120499,467.367004 
	C80.100037,468.162201 80.132431,468.617828 80.134422,469.482117 
	C80.194481,470.974701 80.284943,472.058655 80.307693,473.550659 
	C80.284111,475.329865 80.328239,476.701019 80.297745,478.529785 
	C80.203072,482.986633 80.168335,486.985901 80.166092,490.985168 
	C80.161583,499.024017 81.312210,500.166687 89.428154,500.166840 
	C203.914734,500.168976 318.401306,500.169159 432.887878,500.166809 
	C441.000824,500.166626 442.166595,499.010712 442.166809,490.967926 
	C442.168427,425.142303 442.167297,359.316711 442.157532,293.491089 
	C442.157196,291.327301 442.055603,289.163544 442.089050,286.556213 
	C442.126495,283.403809 442.076080,280.694977 442.097046,277.553528 
	C442.118744,275.076935 442.069000,273.032928 442.057312,270.563141 
	C442.058136,268.427124 442.020905,266.716858 442.009033,264.569031 
	C442.008820,262.088989 441.983215,260.046600 442.104187,257.700256 
	C450.534851,247.438324 458.811218,237.473862 467.105988,227.524780 
	C471.995422,221.660217 471.522919,216.160629 465.234497,211.260300 
	C462.798126,209.361740 459.785278,208.161713 456.947662,206.829742 
	C453.412567,205.170410 450.652802,206.152359 448.320709,209.345261 
	C446.574585,211.735916 444.331146,213.763336 442.249023,215.488647 
	C442.182098,168.534866 442.175476,122.044952 442.168304,75.555031 
	C442.167694,71.722527 442.209137,67.889290 442.147736,64.057724 
	C442.086212,60.218159 440.018494,58.187042 436.221191,58.187252 
	C429.396393,58.187622 422.571625,58.333874 415.383392,58.365540 
	C414.292175,58.402103 413.564392,58.492306 412.462463,58.500469 
	C411.330109,58.501041 410.571899,58.583645 409.483063,58.649864 
	C408.711090,58.684341 408.269745,58.735199 407.555908,58.639809 
	C406.279938,58.278057 405.276459,58.062565 404.228271,57.390423 
	C404.176636,47.062881 404.359467,37.185444 404.019562,27.326029 
	C403.941620,25.064894 402.065125,22.865761 401.019287,20.341022 
	C401.043549,19.451706 401.064911,18.859461 401.086243,18.267216 
M458.313446,277.474487 
	C458.236755,277.966522 458.092987,278.458496 458.092834,278.950562 
	C458.075653,329.749207 458.104919,380.547913 458.010315,431.346405 
	C458.000214,436.763000 460.940796,436.240234 464.742065,435.472443 
	C464.742065,380.201813 464.742065,325.096558 464.742065,269.153809 
	C462.353882,272.121429 460.500214,274.424896 458.313446,277.474487 
z"/>
<path fill="#FDFDFD" opacity="1.000000" stroke="none" 
	d="
M48.913460,18.269836 
	C45.110214,18.269836 41.306969,18.269836 37.167660,18.269836 
	C37.167660,173.213943 37.167660,327.977417 37.167660,483.056641 
	C49.511856,483.056641 61.782555,483.056641 74.845810,483.056641 
	C74.845810,492.926086 74.845810,502.499939 74.922905,512.536865 
	C50.349743,513.000000 25.699482,513.000000 1.052079,513.000000 
	C1.054934,342.333313 1.054934,171.666656 1.054934,1.000000 
	C24.760805,1.000000 48.411743,1.000000 72.597946,1.428452 
	C72.006866,7.162200 70.880539,12.467498 69.648674,18.269836 
	C62.685207,18.269836 55.799332,18.269836 48.913460,18.269836 
z"/>
<path fill="#474243" opacity="1.000000" stroke="none" 
	d="
M48.899544,18.558853 
	C55.799332,18.269836 62.685207,18.269836 69.648674,18.269836 
	C70.880539,12.467498 72.006866,7.162200 73.066605,1.428452 
	C80.354256,1.000000 87.708504,1.000000 95.531380,1.000000 
	C97.836464,6.619394 103.934616,10.441941 102.962944,18.048584 
	C103.049141,19.269783 103.039001,19.728338 103.067062,20.404188 
	C103.105278,20.621481 103.178490,21.056692 103.072250,21.280422 
	C102.966011,21.504154 103.007530,21.997757 102.949646,22.463692 
	C102.881599,49.755283 102.884781,76.580963 102.833855,103.406540 
	C102.830116,105.377014 102.773476,107.459198 102.161987,109.296600 
	C99.969009,115.885941 94.138741,119.081917 86.695099,118.053322 
	C81.367989,117.317200 77.129341,111.882538 77.100853,105.155243 
	C77.010567,83.828247 77.065239,62.500614 77.078056,41.173229 
	C77.078651,40.177719 77.107094,39.159657 77.308136,38.190594 
	C78.397072,32.941406 81.975990,29.859964 86.583450,30.128931 
	C91.420029,30.411270 94.970016,34.057621 95.025803,39.514069 
	C95.168877,53.508530 95.115707,67.505905 94.983032,81.500626 
	C94.971916,82.672874 93.773766,83.833878 93.127106,85.000099 
	C92.208923,83.842712 90.983994,82.806480 90.464676,81.491562 
	C90.007088,80.332939 90.323059,78.862946 90.322845,77.530449 
	C90.320839,65.200577 90.323608,52.870708 90.326805,40.540836 
	C90.327583,37.538403 89.452797,35.109680 85.922035,35.172791 
	C82.648254,35.231304 81.857796,37.611649 81.856133,40.361546 
	C81.842918,62.188515 81.739655,84.016472 81.928650,105.841835 
	C81.980545,111.833702 87.424294,114.933327 92.977684,112.632927 
	C96.883934,111.014839 98.156662,107.889740 98.147446,103.818306 
	C98.087845,77.492432 98.123741,51.166336 98.098991,24.840347 
	C98.097794,23.567760 97.820656,22.295431 97.633858,20.696323 
	C89.327309,20.696323 81.347977,20.787592 73.371689,20.670874 
	C65.256393,20.552122 57.144093,20.228516 49.030479,19.994610 
	C48.982197,19.612364 48.933914,19.230116 48.899544,18.558853 
z"/>
<path fill="#020303" opacity="1.000000" stroke="none" 
	d="
M103.028854,20.186895 
	C103.039001,19.728338 103.049141,19.269783 103.023148,18.467134 
	C200.988190,18.139008 298.989349,18.154972 397.458740,18.504440 
	C397.980682,19.214430 398.034424,19.590914 397.615662,20.048164 
	C299.105042,20.148252 201.066940,20.167574 103.028854,20.186895 
z"/>
<path fill="#474243" opacity="1.000000" stroke="none" 
	d="
M398.088165,19.967396 
	C398.034424,19.590914 397.980682,19.214430 397.919495,18.552582 
	C398.711761,18.185804 399.511475,18.104391 400.698730,18.145098 
	C401.064911,18.859461 401.043549,19.451706 400.706787,20.369650 
	C399.623596,20.452700 398.855896,20.210047 398.088165,19.967396 
z"/>
<path fill="#4394D0" opacity="1.000000" stroke="none" 
	d="
M397.615662,20.048164 
	C398.855896,20.210047 399.623596,20.452700 400.703827,20.666721 
	C402.065125,22.865761 403.941620,25.064894 404.019562,27.326029 
	C404.359467,37.185444 404.176636,47.062881 404.148438,57.863846 
	C404.097900,121.535324 404.081573,184.276733 404.076447,247.018143 
	C404.076385,248.011398 404.214874,249.004654 404.126678,250.304779 
	C398.916809,255.922302 393.381927,260.861389 388.964325,266.652740 
	C384.910797,271.966827 382.062042,278.199890 378.472229,284.141174 
	C377.519714,284.177338 376.777466,284.100311 375.952271,283.625519 
	C374.988007,275.853394 374.988007,275.850830 367.771057,275.850800 
	C271.467072,275.850220 175.163086,275.848969 78.859093,275.854187 
	C73.364998,275.854492 72.248566,277.090912 72.171219,283.105316 
	C72.091721,289.285645 73.432747,290.843903 78.944878,290.844208 
	C175.748718,290.849396 272.552551,290.853180 369.356354,290.806458 
	C371.112305,290.805634 372.867920,290.184387 374.958649,289.986572 
	C375.917450,290.829346 376.541290,291.538147 377.127777,292.591553 
	C374.026733,296.689392 370.963104,300.442596 367.435883,304.188599 
	C270.978119,304.171570 174.983978,304.161713 78.989822,304.153168 
	C77.990120,304.153076 76.945663,303.992920 76.003654,304.230652 
	C75.112961,304.455444 73.650848,305.051392 73.607956,305.579041 
	C73.293121,309.451843 72.811295,313.428925 73.467140,317.183594 
	C73.640930,318.178467 77.599129,319.067261 79.820641,319.069580 
	C169.481842,319.163116 259.143158,319.147400 348.804474,319.159424 
	C350.964722,319.159729 353.124939,319.316345 355.172791,319.713043 
	C343.002228,334.676605 330.944061,349.327179 318.425476,363.948608 
	C238.031296,363.896545 158.097595,363.873444 78.163895,363.852814 
	C77.331856,363.852600 76.463875,363.743164 75.678131,363.942596 
	C74.933258,364.131714 73.701599,364.614990 73.667511,365.046600 
	C73.362022,368.913544 72.797943,372.877472 73.426231,376.625763 
	C73.603493,377.683289 77.458038,378.750885 79.628487,378.755981 
	C130.086685,378.874878 180.545212,378.835144 231.003693,378.853333 
	C256.313904,378.862457 281.624146,378.928131 306.815979,379.281311 
	C302.973511,384.396973 299.249390,389.199554 295.022430,393.945404 
	C222.572235,393.875916 150.624908,393.863159 78.677589,393.851135 
	C77.844902,393.851013 76.910591,393.620636 76.202919,393.920563 
	C75.093552,394.390778 73.686699,394.986115 73.188187,395.938110 
	C69.574417,402.839478 73.096642,408.845581 80.614151,408.848145 
	C149.063187,408.871582 217.512238,408.895508 285.888275,409.274109 
	C282.670624,416.465759 279.525970,423.302612 276.273560,429.722656 
	C276.382355,424.126984 273.957275,422.697540 268.826477,422.731018 
	C233.829971,422.959045 198.831284,422.850433 163.833282,422.850433 
	C135.501572,422.850403 107.169769,422.823639 78.838341,422.913055 
	C77.024590,422.918762 73.760422,423.601410 73.645874,424.348572 
	C73.061531,428.159790 72.819504,432.187592 73.546768,435.927856 
	C73.744621,436.945404 77.721344,437.766113 79.965179,437.769684 
	C144.627853,437.871826 209.290726,437.858307 273.966980,438.269684 
	C274.310760,448.889954 282.960663,451.459045 290.899994,447.857971 
	C305.936340,441.037872 318.173401,430.216156 329.232513,418.102600 
	C331.756836,415.337555 333.766266,412.102417 336.059021,408.971252 
	C336.105316,408.858856 336.120850,408.616333 336.519714,408.638733 
	C347.034210,408.722137 357.149750,408.800507 367.265442,408.838440 
	C374.772034,408.866608 376.967743,406.029144 375.610809,398.472198 
	C375.025513,395.212769 373.686310,393.607330 370.026733,393.768311 
	C364.739136,394.000916 359.425873,393.649078 354.096344,393.133728 
	C354.734070,391.276184 355.275787,389.757629 356.088684,388.401642 
	C357.994476,385.222595 360.030060,382.121338 362.467773,378.920746 
	C363.750061,378.850708 364.577728,378.842743 365.405365,378.847198 
	C375.686646,378.902740 377.375092,376.754425 375.094696,366.526672 
	C374.986969,366.043365 374.935242,365.547638 375.172424,364.913391 
	C380.782288,358.625549 385.940308,352.356537 391.417877,346.380493 
	C395.382446,342.055054 399.771057,338.118256 404.009338,334.474976 
	C404.004639,376.235779 403.961182,417.529785 403.675110,459.013489 
	C402.081909,460.374207 400.731384,461.545197 398.932831,462.599854 
	C394.489227,462.374573 390.493652,462.171295 386.498047,462.170593 
	C287.183014,462.152985 187.867966,462.155579 88.552925,462.164825 
	C86.390648,462.165039 84.228386,462.284943 81.705475,462.256165 
	C80.853798,462.206421 80.362770,462.249542 79.871742,462.292664 
	C70.041733,462.249847 60.211689,462.212097 50.381710,462.162567 
	C43.697304,462.128906 42.171814,460.618683 42.170971,453.932953 
	C42.163864,397.606964 42.166943,341.280945 42.166904,284.954956 
	C42.166847,199.466095 42.179081,113.977219 42.131775,28.488382 
	C42.129303,24.016695 42.841354,20.437466 48.651047,20.063999 
	C57.144093,20.228516 65.256393,20.552122 73.371689,20.670874 
	C81.347977,20.787592 89.327309,20.696323 97.633858,20.696323 
	C97.820656,22.295431 98.097794,23.567760 98.098991,24.840347 
	C98.123741,51.166336 98.087845,77.492432 98.147446,103.818306 
	C98.156662,107.889740 96.883934,111.014839 92.977684,112.632927 
	C87.424294,114.933327 81.980545,111.833702 81.928650,105.841835 
	C81.739655,84.016472 81.842918,62.188515 81.856133,40.361546 
	C81.857796,37.611649 82.648254,35.231304 85.922035,35.172791 
	C89.452797,35.109680 90.327583,37.538403 90.326805,40.540836 
	C90.323608,52.870708 90.320839,65.200577 90.322845,77.530449 
	C90.323059,78.862946 90.007088,80.332939 90.464676,81.491562 
	C90.983994,82.806480 92.208923,83.842712 93.127106,85.000099 
	C93.773766,83.833878 94.971916,82.672874 94.983032,81.500626 
	C95.115707,67.505905 95.168877,53.508530 95.025803,39.514069 
	C94.970016,34.057621 91.420029,30.411270 86.583450,30.128931 
	C81.975990,29.859964 78.397072,32.941406 77.308136,38.190594 
	C77.107094,39.159657 77.078651,40.177719 77.078056,41.173229 
	C77.065239,62.500614 77.010567,83.828247 77.100853,105.155243 
	C77.129341,111.882538 81.367989,117.317200 86.695099,118.053322 
	C94.138741,119.081917 99.969009,115.885941 102.161987,109.296600 
	C102.773476,107.459198 102.830116,105.377014 102.833855,103.406540 
	C102.884781,76.580963 102.881599,49.755283 103.109604,22.392395 
	C103.402618,21.768312 103.558945,21.642235 103.539162,21.601299 
	C103.445236,21.407045 103.303322,21.236000 103.178490,21.056692 
	C103.178490,21.056692 103.105278,20.621481 103.067062,20.404188 
	C201.066940,20.167574 299.105042,20.148252 397.615662,20.048164 
M290.527527,113.151527 
	C287.090118,113.151527 283.652710,113.151527 280.126282,113.151527 
	C280.126282,153.102234 280.126282,192.350708 280.126282,231.707916 
	C310.914185,231.707916 341.423645,231.707916 371.777710,231.707916 
	C371.777710,192.027832 371.777710,152.790802 371.777710,113.151680 
	C344.778473,113.151680 318.149750,113.151680 290.527527,113.151527 
M104.499992,148.847946 
	C140.817871,148.847809 177.135757,148.861237 213.453598,148.832672 
	C218.793015,148.828461 221.114456,146.444855 221.133011,141.267883 
	C221.151733,136.044632 218.946671,133.861908 213.444199,133.859955 
	C168.963165,133.844162 124.482124,133.844498 80.001091,133.859375 
	C74.739792,133.861130 72.203789,136.323029 72.183372,141.272354 
	C72.163651,146.052124 74.954506,148.805771 80.010071,148.835403 
	C87.839798,148.881287 95.669991,148.847702 104.499992,148.847946 
M207.429321,162.850388 
	C164.939499,162.850449 122.449677,162.843719 79.959854,162.859268 
	C74.694954,162.861191 72.181625,165.324524 72.185425,170.300415 
	C72.188957,174.927567 74.882515,177.822617 79.537315,177.826187 
	C124.026619,177.860229 168.515976,177.864609 213.005249,177.821732 
	C217.896988,177.817017 220.130936,175.261642 220.127533,170.216736 
	C220.124084,165.124069 217.998428,162.950775 212.901154,162.856201 
	C211.402023,162.828369 209.901947,162.850830 207.429321,162.850388 
M214.017334,191.856003 
	C169.253830,191.854446 124.490318,191.844772 79.726814,191.862762 
	C74.750389,191.864761 72.340363,194.231201 72.187752,199.025406 
	C72.034828,203.829056 74.829926,206.828537 79.736343,206.831573 
	C124.000610,206.858994 168.264954,206.821838 212.529129,206.889420 
	C216.681046,206.895752 219.380432,205.316177 219.954620,201.203583 
	C220.538300,197.023254 220.117401,193.071808 214.017334,191.856003 
M127.500000,333.152069 
	C111.866570,333.152039 96.233147,333.152008 80.599716,333.152069 
	C72.252556,333.152100 71.893814,333.597382 72.148079,342.179962 
	C72.265793,346.153320 73.057274,348.335236 78.090553,348.288666 
	C108.356949,348.008423 138.627930,348.050232 168.895477,348.259308 
	C173.306686,348.289795 174.974380,346.842682 174.819016,342.694855 
	C174.769241,341.366425 174.796875,340.034637 174.807220,338.704559 
	C174.838135,334.731567 173.445358,332.922943 168.911209,333.033966 
	C155.447906,333.363556 141.971359,333.152130 127.500000,333.152069 
M312.538483,84.446640 
	C316.096741,77.440414 319.655029,70.434189 323.213318,63.427956 
	C323.598236,63.529537 323.983154,63.631115 324.368073,63.732697 
	C324.368073,72.110825 324.368073,80.488960 324.368073,89.183037 
	C326.542114,89.070183 328.129974,88.987755 329.748871,88.903725 
	C329.748871,76.155693 329.748871,63.780113 329.748871,51.756161 
	C324.328766,49.698917 321.506836,51.849987 319.848480,56.518593 
	C319.073883,58.699295 317.829559,60.715790 316.768372,62.791496 
	C314.632568,66.969246 312.476349,71.136559 309.937195,76.068245 
	C306.195709,68.624023 302.665619,62.371140 299.877472,55.803280 
	C297.738007,50.763477 294.517487,50.329628 290.154602,51.702522 
	C290.154602,64.223389 290.154602,76.487450 290.154602,89.136520 
	C292.197571,89.037727 293.898438,88.955475 295.990845,88.854294 
	C295.990845,80.096115 295.990845,71.887901 295.990845,63.679680 
	C299.952820,69.638840 303.148315,75.769028 306.068420,82.027695 
	C307.346283,84.766541 309.000153,85.907257 312.538483,84.446640 
M136.182602,88.827538 
	C136.564423,85.292351 136.946243,81.757164 137.322556,78.273026 
	C147.013275,77.137627 147.223892,77.017937 151.916397,85.275063 
	C154.173737,89.247162 156.929016,89.886810 161.457199,88.519630 
	C158.767426,84.442177 156.262299,80.644630 153.645782,76.678230 
	C160.737335,72.938454 162.287399,67.053764 160.760605,60.335186 
	C159.388947,54.299274 154.472778,51.820168 148.860962,51.398422 
	C142.803986,50.943214 136.686325,51.295433 130.501007,51.295433 
	C130.501007,64.131927 130.501007,76.485649 130.501007,89.098885 
	C132.350876,89.098885 133.832336,89.098885 136.182602,88.827538 
M342.125549,74.495125 
	C342.125549,79.263168 342.125549,84.031212 342.125549,88.920387 
	C351.740875,88.920387 360.664307,88.920387 369.750397,88.920387 
	C369.750397,86.987221 369.750397,85.311401 369.750397,83.056168 
	C362.626099,83.056168 355.898743,83.056168 349.295685,83.056168 
	C349.295685,79.414429 349.295685,76.367424 349.295685,72.945999 
	C355.480591,72.945999 361.250458,72.945999 367.171326,72.945999 
	C367.171326,70.846138 367.171326,69.154060 367.171326,66.880501 
	C360.848938,66.880501 354.950470,66.880501 349.199524,66.880501 
	C349.199524,63.364449 349.199524,60.435974 349.199524,57.014519 
	C356.090546,57.014519 362.670013,57.014519 369.364624,57.014519 
	C369.364624,54.799992 369.364624,53.114300 369.364624,51.403999 
	C360.194061,51.403999 351.440063,51.403999 342.125641,51.403999 
	C342.125641,58.945770 342.125641,66.221069 342.125549,74.495125 
M171.838135,56.631645 
	C171.838135,67.366661 171.838135,78.101685 171.838135,88.882439 
	C181.521378,88.882439 190.432053,88.882439 199.597076,88.882439 
	C199.597076,87.030914 199.597076,85.454628 199.597076,83.298340 
	C192.518494,83.298340 185.622711,83.298340 178.456451,83.298340 
	C178.456451,79.663170 178.456451,76.607971 178.456451,73.030144 
	C184.641861,73.030144 190.551834,73.030144 196.571945,73.030144 
	C196.571945,70.820854 196.571945,69.140366 196.571945,66.918381 
	C190.282196,66.918381 184.391052,66.918381 178.437439,66.918381 
	C178.437439,63.448105 178.437439,60.529636 178.437439,56.982414 
	C185.408432,56.982414 192.128418,56.982414 199.143082,56.982414 
	C199.019608,54.743286 198.932114,53.156803 198.838531,51.459938 
	C189.737839,51.459938 181.017212,51.459938 172.099533,51.459938 
	C171.999527,53.067303 171.918655,54.367069 171.838135,56.631645 
M209.470901,65.837509 
	C210.888824,67.195946 212.086258,69.025040 213.770859,69.814217 
	C217.212723,71.426620 221.103928,72.127350 224.439468,73.900642 
	C226.318756,74.899757 227.460007,77.287148 228.933731,79.049141 
	C226.903549,80.386696 224.717499,83.027832 222.873611,82.807350 
	C218.121948,82.239174 213.521683,80.404831 208.389114,78.941856 
	C207.957169,79.795761 207.156342,81.378891 206.204208,83.261147 
	C213.201752,88.920647 220.749176,90.808533 229.130280,87.946167 
	C233.342636,86.507538 236.009979,83.511086 236.183578,78.664543 
	C236.356171,73.846138 234.120178,70.706520 229.855209,68.954376 
	C226.479355,67.567505 222.823410,66.773926 219.621002,65.090683 
	C218.020050,64.249191 217.155106,62.007473 215.957275,60.399071 
	C217.738922,59.243793 219.573792,57.052940 221.291519,57.141228 
	C225.303040,57.347412 229.258286,58.648453 233.508621,59.564770 
	C234.181747,58.109287 234.930527,56.490211 235.658096,54.917011 
	C230.032104,51.145714 223.186661,49.819023 217.359207,51.244881 
	C210.359756,52.957497 207.516251,57.774330 209.470901,65.837509 
M256.172150,82.672516 
	C252.032181,80.259193 251.173294,76.294312 251.157532,71.963478 
	C251.132889,65.195198 251.151001,58.426762 251.151001,51.440647 
	C248.837234,51.440647 247.110596,51.440647 245.061417,51.440647 
	C245.061417,60.313553 244.612473,68.943581 245.200958,77.502274 
	C245.687225,84.574333 251.941498,89.248772 259.958374,89.802544 
	C268.701691,90.406479 276.515076,86.358299 277.347015,79.043465 
	C278.381195,69.950256 277.594971,60.650017 277.594971,51.142197 
	C275.582123,51.237743 273.854431,51.319756 271.849426,51.414932 
	C271.849426,58.582298 271.897217,65.220642 271.838257,71.858032 
	C271.749573,81.840546 266.521118,85.706886 256.172150,82.672516 
z"/>
<path fill="#4293CF" opacity="1.000000" stroke="none" 
	d="
M442.001160,286.999756 
	C442.055603,289.163544 442.157196,291.327301 442.157532,293.491089 
	C442.167297,359.316711 442.168427,425.142303 442.166809,490.967926 
	C442.166595,499.010712 441.000824,500.166626 432.887878,500.166809 
	C318.401306,500.169159 203.914734,500.168976 89.428154,500.166840 
	C81.312210,500.166687 80.161583,499.024017 80.166092,490.985168 
	C80.168335,486.985901 80.203072,482.986633 80.740112,478.507446 
	C136.744308,478.014709 192.231506,477.997498 247.718704,477.990295 
	C297.374146,477.983856 347.029633,478.024597 396.684906,477.936798 
	C402.136871,477.927155 407.525604,477.481628 411.729980,472.886841 
	C415.603973,468.653107 415.926910,463.594635 415.937225,458.500397 
	C416.026825,414.177246 415.981384,369.853882 416.001129,325.530579 
	C416.004181,318.655273 417.847687,312.518738 422.912231,307.469818 
	C425.594513,304.795807 427.600250,301.453125 430.204590,298.688507 
	C433.998108,294.661621 438.055969,290.883759 442.001160,286.999756 
z"/>
<path fill="#473D3B" opacity="1.000000" stroke="none" 
	d="
M276.381287,430.139465 
	C279.525970,423.302612 282.670624,416.465759 286.123566,409.030701 
	C289.463013,403.622375 292.494141,398.812286 295.525299,394.002167 
	C299.249390,389.199554 302.973511,384.396973 307.097351,379.098328 
	C311.293335,373.727386 315.089630,368.852570 318.885925,363.977722 
	C330.944061,349.327179 343.002228,334.676605 355.449524,319.527466 
	C359.858948,314.084534 363.879211,309.140167 367.899475,304.195831 
	C370.963104,300.442596 374.026733,296.689392 377.461273,292.518005 
	C379.876587,289.726410 381.921051,287.352966 384.109619,284.919617 
	C384.179382,284.919708 384.104980,284.979736 383.624084,284.998444 
	C381.705841,284.647430 380.194122,284.337738 378.682434,284.028015 
	C382.062042,278.199890 384.910797,271.966827 388.964325,266.652740 
	C393.381927,260.861389 398.916809,255.922302 404.374512,250.145142 
	C405.864105,248.498672 406.943787,247.318741 408.337891,246.065643 
	C409.415588,245.306824 410.178864,244.621170 411.221802,243.805466 
	C412.320831,242.774429 413.140228,241.873444 414.235809,240.833130 
	C415.337402,239.792633 416.162842,238.891464 417.285431,237.841461 
	C422.610321,232.398575 427.644135,227.110260 432.662994,221.807800 
	C434.863098,219.483398 436.231476,215.583420 440.755676,217.690552 
	C440.959473,217.785461 441.777313,216.561935 442.309143,215.952499 
	C444.331146,213.763336 446.574585,211.735916 448.320709,209.345261 
	C450.652802,206.152359 453.412567,205.170410 456.947662,206.829742 
	C459.785278,208.161713 462.798126,209.361740 465.234497,211.260300 
	C471.522919,216.160629 471.995422,221.660217 467.105988,227.524780 
	C458.811218,237.473862 450.534851,247.438324 441.809265,257.853668 
	C437.739899,262.547119 434.045197,266.728149 430.498901,271.031433 
	C424.253387,278.610046 418.098480,286.263336 411.621216,294.058594 
	C408.865540,297.132080 406.394226,300.032318 403.633301,303.101562 
	C387.179565,321.940521 370.991089,340.589569 354.908447,359.329407 
	C353.882599,360.524750 353.677368,362.424377 353.034607,364.346436 
	C350.523193,367.773254 347.972229,370.780365 345.653442,373.957001 
	C344.551575,375.466583 343.892517,377.299377 342.617249,378.987732 
	C338.731720,378.418579 336.178528,379.828156 334.004974,382.473602 
	C331.488129,385.536835 328.692444,388.371979 326.202332,391.455139 
	C325.754242,392.009918 326.198486,393.285431 326.162994,394.564209 
	C323.994354,397.235382 321.785614,399.484100 319.825378,401.931885 
	C318.133789,404.044128 316.725037,406.382843 315.143005,408.723755 
	C315.094788,408.826050 314.992157,409.020996 314.581238,409.009399 
	C312.271851,409.364685 309.912964,409.146912 308.563019,410.210144 
	C304.809357,413.166565 301.474976,416.655273 297.640472,419.981567 
	C295.868164,421.030182 294.430328,422.030975 292.697662,423.152283 
	C291.264771,424.159424 290.126709,425.046112 288.653503,425.974548 
	C286.867432,426.994324 285.416534,427.972321 283.963226,428.977112 
	C283.960815,429.003906 284.002533,429.037811 283.746063,429.112274 
	C283.248901,429.445312 283.008240,429.703888 282.592133,430.010834 
	C282.185150,430.163666 282.024719,430.334717 281.618713,430.678192 
	C280.201843,431.519104 279.101624,432.254211 277.734314,433.065277 
	C276.817383,433.480774 276.167480,433.820282 275.398804,433.826660 
	C275.647125,432.375458 276.014221,431.257477 276.381287,430.139465 
M403.385437,256.099854 
	C399.658051,259.861877 396.097870,263.811523 392.151642,267.327942 
	C388.853943,270.266418 388.577148,273.096863 391.327576,276.961609 
	C395.746613,271.492706 399.987640,266.244110 404.775848,260.646515 
	C406.510437,258.061462 408.245026,255.476410 409.979614,252.891357 
	C409.418091,252.475510 408.856567,252.059662 408.295044,251.643799 
	C406.873749,253.052063 405.452454,254.460312 403.385437,256.099854 
M413.574890,250.031219 
	C417.745483,245.356842 421.916046,240.682449 424.643066,237.626038 
	C420.908417,240.885406 415.605713,245.513321 410.303009,250.141235 
	C410.466583,250.392395 410.630127,250.643555 410.793701,250.894714 
	C411.532196,250.728592 412.270660,250.562469 413.574890,250.031219 
z"/>
<path fill="#4293CF" opacity="1.000000" stroke="none" 
	d="
M442.249023,215.488647 
	C441.777313,216.561935 440.959473,217.785461 440.755676,217.690552 
	C436.231476,215.583420 434.863098,219.483398 432.662994,221.807800 
	C427.644135,227.110260 422.610321,232.398575 416.989807,237.547806 
	C416.265106,235.428864 416.018677,233.454788 416.017914,231.480637 
	C415.997162,176.116730 416.004303,120.752831 415.990448,65.388931 
	C415.989868,63.065659 415.831635,60.742428 415.746826,58.419174 
	C422.571625,58.333874 429.396393,58.187622 436.221191,58.187252 
	C440.018494,58.187042 442.086212,60.218159 442.147736,64.057724 
	C442.209137,67.889290 442.167694,71.722527 442.168304,75.555031 
	C442.175476,122.044952 442.182098,168.534866 442.249023,215.488647 
z"/>
<path fill="#377BAD" opacity="1.000000" stroke="none" 
	d="
M442.089050,286.556213 
	C438.055969,290.883759 433.998108,294.661621 430.204590,298.688507 
	C427.600250,301.453125 425.594513,304.795807 422.912231,307.469818 
	C417.847687,312.518738 416.004181,318.655273 416.001129,325.530579 
	C415.981384,369.853882 416.026825,414.177246 415.937225,458.500397 
	C415.926910,463.594635 415.603973,468.653107 411.729980,472.886841 
	C407.525604,477.481628 402.136871,477.927155 396.684906,477.936798 
	C347.029633,478.024597 297.374146,477.983856 247.718704,477.990295 
	C192.231506,477.997498 136.744308,478.014709 80.814743,478.049866 
	C80.328239,476.701019 80.284111,475.329865 80.745483,473.506531 
	C186.380280,473.036011 291.509583,473.019257 396.638885,472.996735 
	C407.563080,472.994415 410.993896,469.579102 410.996185,458.701569 
	C411.005219,415.716644 410.820526,372.730133 411.198181,329.748535 
	C411.256012,323.167755 412.512726,315.840149 415.652100,310.219086 
	C420.514130,301.513580 427.336304,293.869629 433.615173,286.005371 
	C436.009918,283.005920 439.198730,280.640503 442.025635,277.986145 
	C442.076080,280.694977 442.126495,283.403809 442.089050,286.556213 
z"/>
<path fill="#265679" opacity="1.000000" stroke="none" 
	d="
M442.097046,277.553528 
	C439.198730,280.640503 436.009918,283.005920 433.615173,286.005371 
	C427.336304,293.869629 420.514130,301.513580 415.652100,310.219086 
	C412.512726,315.840149 411.256012,323.167755 411.198181,329.748535 
	C410.820526,372.730133 411.005219,415.716644 410.996185,458.701569 
	C410.993896,469.579102 407.563080,472.994415 396.638885,472.996735 
	C291.509583,473.019257 186.380280,473.036011 80.813187,473.098511 
	C80.284943,472.058655 80.194481,470.974701 80.587967,469.459656 
	C186.020401,469.025024 290.968872,469.022278 395.917358,469.016388 
	C404.849243,469.015900 407.015320,466.820679 407.015991,457.781616 
	C407.018890,417.967834 406.900208,378.153351 407.126770,338.340851 
	C407.166992,331.276367 408.343903,324.171265 409.506897,317.169800 
	C412.106506,301.519165 423.316071,291.073792 432.891174,279.718903 
	C435.589752,276.518707 438.958130,273.883331 442.019257,270.988892 
	C442.069000,273.032928 442.118744,275.076935 442.097046,277.553528 
z"/>
<path fill="#1B3B54" opacity="1.000000" stroke="none" 
	d="
M442.057312,270.563110 
	C438.958130,273.883331 435.589752,276.518707 432.891174,279.718903 
	C423.316071,291.073792 412.106506,301.519165 409.506897,317.169800 
	C408.343903,324.171265 407.166992,331.276367 407.126770,338.340851 
	C406.900208,378.153351 407.018890,417.967834 407.015991,457.781616 
	C407.015320,466.820679 404.849243,469.015900 395.917358,469.016388 
	C290.968872,469.022278 186.020401,469.025024 80.618378,469.051025 
	C80.132431,468.617828 80.100037,468.162201 80.571915,467.357849 
	C185.541946,467.006500 290.007721,467.003876 394.473480,467.001190 
	C395.806366,467.001160 397.140747,467.040802 398.471924,466.992676 
	C403.858490,466.797882 405.716461,463.997681 403.917725,458.823761 
	C403.961182,417.529785 404.004639,376.235779 404.065735,334.089172 
	C404.179321,332.465668 404.275238,331.694824 404.721741,330.817627 
	C405.394379,326.809570 405.716400,322.907867 406.037384,318.678436 
	C406.041779,317.913757 406.047241,317.476776 406.404358,316.963379 
	C407.831940,313.920532 408.907837,310.954163 409.990112,307.618011 
	C410.010040,306.509705 410.023590,305.771210 410.384125,304.966370 
	C416.833893,296.241577 422.700562,287.402679 429.128448,278.992676 
	C432.957886,273.982391 437.668945,269.645966 441.983673,265.006622 
	C442.020905,266.716858 442.058136,268.427124 442.057312,270.563110 
z"/>
<path fill="#463B39" opacity="1.000000" stroke="none" 
	d="
M458.479980,277.101410 
	C460.500214,274.424896 462.353882,272.121429 464.742065,269.153809 
	C464.742065,325.096558 464.742065,380.201813 464.742065,435.472443 
	C460.940796,436.240234 458.000214,436.763000 458.010315,431.346405 
	C458.104919,380.547913 458.075653,329.749207 458.092834,278.950562 
	C458.092987,278.458496 458.236755,277.966522 458.479980,277.101410 
z"/>
<path fill="#17354A" opacity="1.000000" stroke="none" 
	d="
M403.675079,459.013489 
	C405.716461,463.997681 403.858490,466.797882 398.471924,466.992676 
	C397.140747,467.040802 395.806366,467.001160 394.473480,467.001190 
	C290.007721,467.003876 185.541946,467.006500 80.624763,467.018311 
	C80.105873,465.710144 80.038391,464.392853 79.921326,462.684082 
	C80.362770,462.249542 80.853798,462.206421 81.816826,462.621277 
	C83.675293,463.389374 85.061653,463.970367 86.448257,463.970947 
	C189.059738,464.013245 291.671234,464.015839 394.282715,463.955841 
	C395.982330,463.954834 397.681488,463.147339 399.380859,462.716187 
	C400.731384,461.545197 402.081909,460.374207 403.675079,459.013489 
z"/>
<path fill="#1C3E58" opacity="1.000000" stroke="none" 
	d="
M408.023499,246.138824 
	C406.943787,247.318741 405.864105,248.498672 404.536560,249.838257 
	C404.214874,249.004654 404.076385,248.011398 404.076447,247.018143 
	C404.081573,184.276733 404.097900,121.535324 404.193115,58.320492 
	C405.276459,58.062565 406.279938,58.278057 407.611450,59.127754 
	C407.967468,121.887581 407.995483,184.013199 408.023499,246.138824 
z"/>
<path fill="#316D98" opacity="1.000000" stroke="none" 
	d="
M413.959656,240.972473 
	C413.140228,241.873444 412.320831,242.774429 410.934235,243.514648 
	C410.247131,241.374863 410.023254,239.395874 410.022552,237.416809 
	C410.003510,184.154999 410.013794,130.893188 409.998779,77.631386 
	C409.997009,71.309662 409.878235,64.987961 409.813690,58.666248 
	C410.571899,58.583645 411.330109,58.501041 412.508423,59.008026 
	C412.950714,118.160309 412.963898,176.723022 413.035583,235.285645 
	C413.037903,237.181625 413.638153,239.076874 413.959656,240.972473 
z"/>
<path fill="#3A82B7" opacity="1.000000" stroke="none" 
	d="
M414.235809,240.833130 
	C413.638153,239.076874 413.037903,237.181625 413.035583,235.285645 
	C412.963898,176.723022 412.950714,118.160309 412.882568,59.090061 
	C413.564392,58.492306 414.292175,58.402103 415.383392,58.365540 
	C415.831635,60.742428 415.989868,63.065659 415.990448,65.388931 
	C416.004303,120.752831 415.997162,176.116730 416.017914,231.480637 
	C416.018677,233.454788 416.265106,235.428864 416.692627,237.696625 
	C416.162842,238.891464 415.337402,239.792633 414.235809,240.833130 
z"/>
<path fill="#265679" opacity="1.000000" stroke="none" 
	d="
M409.483063,58.649864 
	C409.878235,64.987961 409.997009,71.309662 409.998779,77.631386 
	C410.013794,130.893188 410.003510,184.154999 410.022552,237.416809 
	C410.023254,239.395874 410.247131,241.374863 410.654602,243.644714 
	C410.178864,244.621170 409.415588,245.306824 408.337891,246.065643 
	C407.995483,184.013199 407.967468,121.887581 407.883911,59.274010 
	C408.269745,58.735199 408.711090,58.684341 409.483063,58.649864 
z"/>
<path fill="#162F41" opacity="1.000000" stroke="none" 
	d="
M442.009033,264.569031 
	C437.668945,269.645966 432.957886,273.982391 429.128448,278.992676 
	C422.700562,287.402679 416.833893,296.241577 410.411102,304.588196 
	C410.695923,300.812683 411.300781,297.349030 411.905609,293.885345 
	C418.098480,286.263336 424.253387,278.610046 430.498901,271.031433 
	C434.045197,266.728149 437.739899,262.547119 441.662720,258.157593 
	C441.983215,260.046600 442.008820,262.088989 442.009033,264.569031 
z"/>
<path fill="#459BDA" opacity="1.000000" stroke="none" 
	d="
M103.072250,21.280422 
	C103.303322,21.236000 103.445236,21.407045 103.539162,21.601299 
	C103.558945,21.642235 103.402618,21.768312 103.167488,21.926460 
	C103.007530,21.997757 102.966011,21.504154 103.072250,21.280422 
z"/>
<path fill="#FCFCFC" opacity="1.000000" stroke="none" 
	d="
M291.024292,113.151604 
	C318.149750,113.151680 344.778473,113.151680 371.777710,113.151680 
	C371.777710,152.790802 371.777710,192.027832 371.777710,231.707916 
	C341.423645,231.707916 310.914185,231.707916 280.126282,231.707916 
	C280.126282,192.350708 280.126282,153.102234 280.126282,113.151527 
	C283.652710,113.151527 287.090118,113.151527 291.024292,113.151604 
M285.214722,210.327545 
	C284.267914,220.363327 286.243622,223.521942 295.576050,226.687180 
	C297.301147,227.272278 299.097748,227.915237 300.886658,228.000488 
	C314.309784,228.640137 327.749298,229.704239 341.162506,229.461853 
	C347.970642,229.338837 354.980286,227.473724 361.458984,225.162964 
	C370.224884,222.036423 371.833374,212.526871 365.471924,205.705444 
	C359.161285,198.938553 351.069153,195.360062 342.409454,192.149094 
	C339.571533,201.313675 336.870941,210.034836 334.170319,218.755981 
	C333.819977,218.668243 333.469604,218.580505 333.119263,218.492767 
	C331.601898,214.300980 330.084564,210.109192 328.569489,205.923737 
	C330.106995,204.208313 331.628082,202.511185 333.085693,200.884903 
	C329.252899,195.093338 326.956360,194.144867 323.534912,196.711594 
	C320.144684,199.254913 320.426910,200.997879 325.028381,205.881989 
	C323.524414,210.148819 322.020447,214.415634 320.516449,218.682465 
	C320.139862,218.760361 319.763245,218.838272 319.386658,218.916183 
	C316.659607,210.009293 313.932556,201.102417 311.067047,191.743271 
	C301.314758,196.462860 291.256958,199.842682 285.214722,210.327545 
M344.828247,139.729462 
	C339.496094,132.129089 331.751678,130.446259 323.232758,131.369797 
	C315.146576,132.246414 309.373230,136.562088 306.323303,144.266266 
	C301.650299,156.070389 304.782776,166.783264 311.033264,176.970764 
	C313.154083,180.427444 316.550537,183.134918 316.004333,187.924728 
	C315.887909,188.945892 317.468781,190.436691 318.592865,191.275101 
	C323.278625,194.770004 330.852509,194.664902 335.413940,191.019470 
	C336.488312,190.160843 337.245880,188.766785 337.842529,187.477142 
	C339.258606,184.416534 340.107483,181.033157 341.863861,178.200821 
	C349.379059,166.081833 353.051178,153.736710 344.828247,139.729462 
z"/>
<path fill="#FCFDFE" opacity="1.000000" stroke="none" 
	d="
M374.623688,289.852600 
	C372.867920,290.184387 371.112305,290.805634 369.356354,290.806458 
	C272.552551,290.853180 175.748718,290.849396 78.944878,290.844208 
	C73.432747,290.843903 72.091721,289.285645 72.171219,283.105316 
	C72.248566,277.090912 73.364998,275.854492 78.859093,275.854187 
	C175.163086,275.848969 271.467072,275.850220 367.771057,275.850800 
	C374.988007,275.850830 374.988007,275.853394 375.860321,283.987732 
	C375.442108,286.449341 375.032898,288.150970 374.623688,289.852600 
z"/>
<path fill="#FCFDFE" opacity="1.000000" stroke="none" 
	d="
M367.435852,304.188599 
	C363.879211,309.140167 359.858948,314.084534 355.561951,319.214478 
	C353.124939,319.316345 350.964722,319.159729 348.804474,319.159424 
	C259.143158,319.147400 169.481842,319.163116 79.820641,319.069580 
	C77.599129,319.067261 73.640930,318.178467 73.467140,317.183594 
	C72.811295,313.428925 73.293121,309.451843 73.607956,305.579041 
	C73.650848,305.051392 75.112961,304.455444 76.003654,304.230652 
	C76.945663,303.992920 77.990120,304.153076 78.989822,304.153168 
	C174.983978,304.161713 270.978119,304.171570 367.435852,304.188599 
z"/>
<path fill="#FCFDFE" opacity="1.000000" stroke="none" 
	d="
M318.425446,363.948608 
	C315.089630,368.852570 311.293335,373.727386 307.215698,378.785217 
	C281.624146,378.928131 256.313904,378.862457 231.003693,378.853333 
	C180.545212,378.835144 130.086685,378.874878 79.628487,378.755981 
	C77.458038,378.750885 73.603493,377.683289 73.426231,376.625763 
	C72.797943,372.877472 73.362022,368.913544 73.667511,365.046600 
	C73.701599,364.614990 74.933258,364.131714 75.678131,363.942596 
	C76.463875,363.743164 77.331856,363.852600 78.163895,363.852814 
	C158.097595,363.873444 238.031296,363.896545 318.425446,363.948608 
z"/>
<path fill="#FCFDFE" opacity="1.000000" stroke="none" 
	d="
M295.022430,393.945404 
	C292.494141,398.812286 289.463013,403.622375 286.196564,408.675903 
	C217.512238,408.895508 149.063187,408.871582 80.614151,408.848145 
	C73.096642,408.845581 69.574417,402.839478 73.188187,395.938110 
	C73.686699,394.986115 75.093552,394.390778 76.202919,393.920563 
	C76.910591,393.620636 77.844902,393.851013 78.677589,393.851135 
	C150.624908,393.863159 222.572235,393.875916 295.022430,393.945404 
z"/>
<path fill="#FCFDFE" opacity="1.000000" stroke="none" 
	d="
M276.273560,429.722656 
	C276.014221,431.257477 275.647125,432.375458 275.301453,434.147217 
	C274.866455,435.821838 274.410004,436.842651 273.953552,437.863464 
	C209.290726,437.858307 144.627853,437.871826 79.965179,437.769684 
	C77.721344,437.766113 73.744621,436.945404 73.546768,435.927856 
	C72.819504,432.187592 73.061531,428.159790 73.645874,424.348572 
	C73.760422,423.601410 77.024590,422.918762 78.838341,422.913055 
	C107.169769,422.823639 135.501572,422.850403 163.833282,422.850433 
	C198.831284,422.850433 233.829971,422.959045 268.826477,422.731018 
	C273.957275,422.697540 276.382355,424.126984 276.273560,429.722656 
z"/>
<path fill="#FCFDFE" opacity="1.000000" stroke="none" 
	d="
M103.999985,148.847870 
	C95.669991,148.847702 87.839798,148.881287 80.010071,148.835403 
	C74.954506,148.805771 72.163651,146.052124 72.183372,141.272354 
	C72.203789,136.323029 74.739792,133.861130 80.001091,133.859375 
	C124.482124,133.844498 168.963165,133.844162 213.444199,133.859955 
	C218.946671,133.861908 221.151733,136.044632 221.133011,141.267883 
	C221.114456,146.444855 218.793015,148.828461 213.453598,148.832672 
	C177.135757,148.861237 140.817871,148.847809 103.999985,148.847870 
z"/>
<path fill="#FCFDFE" opacity="1.000000" stroke="none" 
	d="
M207.915817,162.850327 
	C209.901947,162.850830 211.402023,162.828369 212.901154,162.856201 
	C217.998428,162.950775 220.124084,165.124069 220.127533,170.216736 
	C220.130936,175.261642 217.896988,177.817017 213.005249,177.821732 
	C168.515976,177.864609 124.026619,177.860229 79.537315,177.826187 
	C74.882515,177.822617 72.188957,174.927567 72.185425,170.300415 
	C72.181625,165.324524 74.694954,162.861191 79.959854,162.859268 
	C122.449677,162.843719 164.939499,162.850449 207.915817,162.850327 
z"/>
<path fill="#FCFDFE" opacity="1.000000" stroke="none" 
	d="
M214.462906,191.867737 
	C220.117401,193.071808 220.538300,197.023254 219.954620,201.203583 
	C219.380432,205.316177 216.681046,206.895752 212.529129,206.889420 
	C168.264954,206.821838 124.000610,206.858994 79.736343,206.831573 
	C74.829926,206.828537 72.034828,203.829056 72.187752,199.025406 
	C72.340363,194.231201 74.750389,191.864761 79.726814,191.862762 
	C124.490318,191.844772 169.253830,191.854446 214.462906,191.867737 
z"/>
<path fill="#FCFDFE" opacity="1.000000" stroke="none" 
	d="
M128.000000,333.152130 
	C141.971359,333.152130 155.447906,333.363556 168.911209,333.033966 
	C173.445358,332.922943 174.838135,334.731567 174.807220,338.704559 
	C174.796875,340.034637 174.769241,341.366425 174.819016,342.694855 
	C174.974380,346.842682 173.306686,348.289795 168.895477,348.259308 
	C138.627930,348.050232 108.356949,348.008423 78.090553,348.288666 
	C73.057274,348.335236 72.265793,346.153320 72.148079,342.179962 
	C71.893814,333.597382 72.252556,333.152100 80.599716,333.152069 
	C96.233147,333.152008 111.866570,333.152039 128.000000,333.152130 
z"/>
<path fill="#F5F9FD" opacity="1.000000" stroke="none" 
	d="
M312.228455,84.688095 
	C309.000153,85.907257 307.346283,84.766541 306.068420,82.027695 
	C303.148315,75.769028 299.952820,69.638840 295.990845,63.679680 
	C295.990845,71.887901 295.990845,80.096115 295.990845,88.854294 
	C293.898438,88.955475 292.197571,89.037727 290.154602,89.136520 
	C290.154602,76.487450 290.154602,64.223389 290.154602,51.702522 
	C294.517487,50.329628 297.738007,50.763477 299.877472,55.803280 
	C302.665619,62.371140 306.195709,68.624023 309.937195,76.068245 
	C312.476349,71.136559 314.632568,66.969246 316.768372,62.791496 
	C317.829559,60.715790 319.073883,58.699295 319.848480,56.518593 
	C321.506836,51.849987 324.328766,49.698917 329.748871,51.756161 
	C329.748871,63.780113 329.748871,76.155693 329.748871,88.903725 
	C328.129974,88.987755 326.542114,89.070183 324.368073,89.183037 
	C324.368073,80.488960 324.368073,72.110825 324.368073,63.732697 
	C323.983154,63.631115 323.598236,63.529537 323.213318,63.427956 
	C319.655029,70.434189 316.096741,77.440414 312.228455,84.688095 
z"/>
<path fill="#F5F9FD" opacity="1.000000" stroke="none" 
	d="
M135.748199,88.963211 
	C133.832336,89.098885 132.350876,89.098885 130.501007,89.098885 
	C130.501007,76.485649 130.501007,64.131927 130.501007,51.295433 
	C136.686325,51.295433 142.803986,50.943214 148.860962,51.398422 
	C154.472778,51.820168 159.388947,54.299274 160.760605,60.335186 
	C162.287399,67.053764 160.737335,72.938454 153.645782,76.678230 
	C156.262299,80.644630 158.767426,84.442177 161.457199,88.519630 
	C156.929016,89.886810 154.173737,89.247162 151.916397,85.275063 
	C147.223892,77.017937 147.013275,77.137627 137.322556,78.273026 
	C136.946243,81.757164 136.564423,85.292351 135.748199,88.963211 
M140.610107,57.068005 
	C139.373505,57.739254 137.132294,58.326069 137.067581,59.095821 
	C136.715652,63.283028 136.900330,67.515335 136.900330,72.274513 
	C141.860413,71.898186 146.007431,71.898262 150.027802,71.184799 
	C153.625916,70.546280 155.026077,67.694031 154.994370,64.148003 
	C154.963364,60.682560 153.196167,58.397263 149.898560,57.744278 
	C147.172821,57.204536 144.327164,57.270260 140.610107,57.068005 
z"/>
<path fill="#F3F8FC" opacity="1.000000" stroke="none" 
	d="
M342.125610,73.995750 
	C342.125641,66.221069 342.125641,58.945770 342.125641,51.403999 
	C351.440063,51.403999 360.194061,51.403999 369.364624,51.403999 
	C369.364624,53.114300 369.364624,54.799992 369.364624,57.014519 
	C362.670013,57.014519 356.090546,57.014519 349.199524,57.014519 
	C349.199524,60.435974 349.199524,63.364449 349.199524,66.880501 
	C354.950470,66.880501 360.848938,66.880501 367.171326,66.880501 
	C367.171326,69.154060 367.171326,70.846138 367.171326,72.945999 
	C361.250458,72.945999 355.480591,72.945999 349.295685,72.945999 
	C349.295685,76.367424 349.295685,79.414429 349.295685,83.056168 
	C355.898743,83.056168 362.626099,83.056168 369.750397,83.056168 
	C369.750397,85.311401 369.750397,86.987221 369.750397,88.920387 
	C360.664307,88.920387 351.740875,88.920387 342.125549,88.920387 
	C342.125549,84.031212 342.125549,79.263168 342.125610,73.995750 
z"/>
<path fill="#102432" opacity="1.000000" stroke="none" 
	d="
M398.932831,462.599854 
	C397.681488,463.147339 395.982330,463.954834 394.282715,463.955841 
	C291.671234,464.015839 189.059738,464.013245 86.448257,463.970947 
	C85.061653,463.970367 83.675293,463.389374 82.177475,462.714142 
	C84.228386,462.284943 86.390648,462.165039 88.552925,462.164825 
	C187.867966,462.155579 287.183014,462.152985 386.498047,462.170593 
	C390.493652,462.171295 394.489227,462.374573 398.932831,462.599854 
z"/>
<path fill="#F7FAFD" opacity="1.000000" stroke="none" 
	d="
M171.837952,56.149239 
	C171.918655,54.367069 171.999527,53.067303 172.099533,51.459938 
	C181.017212,51.459938 189.737839,51.459938 198.838531,51.459938 
	C198.932114,53.156803 199.019608,54.743286 199.143082,56.982414 
	C192.128418,56.982414 185.408432,56.982414 178.437439,56.982414 
	C178.437439,60.529636 178.437439,63.448105 178.437439,66.918381 
	C184.391052,66.918381 190.282196,66.918381 196.571945,66.918381 
	C196.571945,69.140366 196.571945,70.820854 196.571945,73.030144 
	C190.551834,73.030144 184.641861,73.030144 178.456451,73.030144 
	C178.456451,76.607971 178.456451,79.663170 178.456451,83.298340 
	C185.622711,83.298340 192.518494,83.298340 199.597076,83.298340 
	C199.597076,85.454628 199.597076,87.030914 199.597076,88.882439 
	C190.432053,88.882439 181.521378,88.882439 171.838135,88.882439 
	C171.838135,78.101685 171.838135,67.366661 171.837952,56.149239 
z"/>
<path fill="#F7FAFD" opacity="1.000000" stroke="none" 
	d="
M209.308960,65.496796 
	C207.516251,57.774330 210.359756,52.957497 217.359207,51.244881 
	C223.186661,49.819023 230.032104,51.145714 235.658096,54.917011 
	C234.930527,56.490211 234.181747,58.109287 233.508621,59.564770 
	C229.258286,58.648453 225.303040,57.347412 221.291519,57.141228 
	C219.573792,57.052940 217.738922,59.243793 215.957275,60.399071 
	C217.155106,62.007473 218.020050,64.249191 219.621002,65.090683 
	C222.823410,66.773926 226.479355,67.567505 229.855209,68.954376 
	C234.120178,70.706520 236.356171,73.846138 236.183578,78.664543 
	C236.009979,83.511086 233.342636,86.507538 229.130280,87.946167 
	C220.749176,90.808533 213.201752,88.920647 206.204208,83.261147 
	C207.156342,81.378891 207.957169,79.795761 208.389114,78.941856 
	C213.521683,80.404831 218.121948,82.239174 222.873611,82.807350 
	C224.717499,83.027832 226.903549,80.386696 228.933731,79.049149 
	C227.460007,77.287148 226.318756,74.899757 224.439468,73.900642 
	C221.103928,72.127350 217.212723,71.426620 213.770859,69.814217 
	C212.086258,69.025040 210.888824,67.195946 209.308960,65.496796 
z"/>
<path fill="#FCFDFE" opacity="1.000000" stroke="none" 
	d="
M256.535248,82.827553 
	C266.521118,85.706886 271.749573,81.840546 271.838257,71.858032 
	C271.897217,65.220642 271.849426,58.582298 271.849426,51.414932 
	C273.854431,51.319756 275.582123,51.237743 277.594971,51.142197 
	C277.594971,60.650017 278.381195,69.950256 277.347015,79.043465 
	C276.515076,86.358299 268.701691,90.406479 259.958374,89.802544 
	C251.941498,89.248772 245.687225,84.574333 245.200958,77.502274 
	C244.612473,68.943581 245.061417,60.313553 245.061417,51.440647 
	C247.110596,51.440647 248.837234,51.440647 251.151001,51.440647 
	C251.151001,58.426762 251.132889,65.195198 251.157532,71.963478 
	C251.173294,76.294312 252.032181,80.259193 256.535248,82.827553 
z"/>
<path fill="#FDFDFD" opacity="1.000000" stroke="none" 
	d="
M354.123535,393.546600 
	C359.425873,393.649078 364.739136,394.000916 370.026733,393.768311 
	C373.686310,393.607330 375.025513,395.212769 375.610809,398.472198 
	C376.967743,406.029144 374.772034,408.866608 367.265442,408.838440 
	C357.149750,408.800507 347.034210,408.722137 336.588745,408.279358 
	C340.171387,403.270264 344.083954,398.642944 348.387756,393.964722 
	C350.560516,393.791412 352.342041,393.669006 354.123535,393.546600 
z"/>
<path fill="#3F8BC4" opacity="1.000000" stroke="none" 
	d="
M273.966980,438.269684 
	C274.410004,436.842651 274.866455,435.821838 275.420227,434.480408 
	C276.167480,433.820282 276.817383,433.480774 277.741455,433.465576 
	C278.327209,435.068604 278.691071,436.337128 278.941376,437.627747 
	C280.142975,443.822540 284.034485,446.166138 290.032654,444.084198 
	C292.198364,443.332489 294.323578,442.327637 296.279907,441.131775 
	C307.780334,434.101685 317.913696,425.389282 326.934418,415.421143 
	C328.474030,413.719818 329.027039,411.125641 330.363373,408.896057 
	C331.126740,408.905701 331.562561,408.963165 332.084656,409.183929 
	C332.441956,409.249451 332.712952,409.151703 333.360779,408.997559 
	C334.495941,408.988678 335.254333,409.036163 336.012726,409.083618 
	C333.766266,412.102417 331.756836,415.337555 329.232513,418.102600 
	C318.173401,430.216156 305.936340,441.037872 290.899994,447.857971 
	C282.960663,451.459045 274.310760,448.889954 273.966980,438.269684 
z"/>
<path fill="#3B85BB" opacity="1.000000" stroke="none" 
	d="
M404.371124,330.923981 
	C404.275238,331.694824 404.179321,332.465668 404.026978,333.622314 
	C399.771057,338.118256 395.382446,342.055054 391.417877,346.380493 
	C385.940308,352.356537 380.782288,358.625549 374.890564,364.732300 
	C373.488434,364.345886 372.683167,363.996277 371.912903,363.305878 
	C372.363495,362.083984 372.612152,361.061432 373.220459,360.343689 
	C379.220642,353.263641 385.131104,346.098083 391.377808,339.239838 
	C395.325623,334.905518 399.800720,331.051453 404.070282,327.377747 
	C404.191193,328.823669 404.281158,329.873840 404.371124,330.923981 
z"/>
<path fill="#D9DDE0" opacity="1.000000" stroke="none" 
	d="
M331.998413,409.020630 
	C331.562561,408.963165 331.126740,408.905701 330.047241,408.822876 
	C328.972687,408.771912 328.541809,408.746246 328.093933,408.382935 
	C329.130920,406.434418 330.066833,404.729126 331.263489,403.232361 
	C333.764679,400.103821 336.403442,397.085266 339.351929,394.023254 
	C340.441864,393.927887 341.165527,393.830841 342.323181,393.827179 
	C344.506805,393.802734 346.256439,393.684875 348.024994,393.679626 
	C348.043915,393.792236 347.996490,394.015594 347.996521,394.015594 
	C344.083954,398.642944 340.171387,403.270264 336.189850,408.256958 
	C336.120850,408.616333 336.105316,408.858856 336.059021,408.971252 
	C335.254333,409.036163 334.495941,408.988678 333.115875,408.945801 
	C332.328949,408.973816 332.163666,408.997223 331.998413,409.020630 
z"/>
<path fill="#F3F8FC" opacity="1.000000" stroke="none" 
	d="
M371.877869,363.646667 
	C372.683167,363.996277 373.488434,364.345886 374.575592,364.876587 
	C374.935242,365.547638 374.986969,366.043365 375.094696,366.526672 
	C377.375092,376.754425 375.686646,378.902740 365.405365,378.847198 
	C364.577728,378.842743 363.750061,378.850708 362.247131,378.831116 
	C361.571838,378.809326 361.114563,378.677368 361.131714,378.352966 
	C361.690033,377.242737 362.193481,376.427521 362.778717,375.675995 
	C365.826111,371.762756 368.894318,367.865723 371.962158,363.877563 
	C371.969025,363.792053 371.877869,363.646667 371.877869,363.646667 
z"/>
<path fill="#3F8BC4" opacity="1.000000" stroke="none" 
	d="
M361.114563,378.677368 
	C361.114563,378.677368 361.571838,378.809326 361.792480,378.898956 
	C360.030060,382.121338 357.994476,385.222595 356.088684,388.401642 
	C355.275787,389.757629 354.734070,391.276184 354.096344,393.133728 
	C352.342041,393.669006 350.560516,393.791412 348.387756,393.964722 
	C347.996490,394.015594 348.043915,393.792236 348.011292,393.327850 
	C348.949066,391.094238 349.805725,389.249786 350.915009,387.572449 
	C352.851868,384.643707 354.944153,381.817810 357.388184,378.929016 
	C358.908234,378.831940 360.011414,378.754669 361.114563,378.677368 
z"/>
<path fill="#3B85BB" opacity="1.000000" stroke="none" 
	d="
M374.958649,289.986572 
	C375.032898,288.150970 375.442108,286.449341 375.943237,284.385498 
	C376.777466,284.100311 377.519714,284.177338 378.472229,284.141174 
	C380.194122,284.337738 381.705841,284.647430 383.609436,284.981598 
	C384.001312,285.006042 383.965485,284.979553 383.965485,284.979553 
	C381.921051,287.352966 379.876587,289.726410 377.498657,292.173401 
	C376.541290,291.538147 375.917450,290.829346 374.958649,289.986572 
z"/>
<path fill="#162F41" opacity="1.000000" stroke="none" 
	d="
M353.090332,363.996338 
	C353.677368,362.424377 353.882599,360.524750 354.908447,359.329407 
	C370.991089,340.589569 387.179565,321.940521 403.655823,303.547424 
	C403.968750,305.892151 403.969543,307.960022 403.627563,310.054993 
	C402.976501,310.195374 402.563965,310.217834 402.374817,310.434875 
	C389.491455,325.222046 376.572357,339.978790 363.808868,354.868958 
	C361.522247,357.536560 359.884827,360.760620 357.544922,363.790710 
	C355.791565,363.901215 354.440948,363.948761 353.090332,363.996338 
z"/>
<path fill="#7E7E7F" opacity="1.000000" stroke="none" 
	d="
M338.985657,394.021545 
	C336.403442,397.085266 333.764679,400.103821 331.263489,403.232361 
	C330.066833,404.729126 329.130920,406.434418 328.045593,408.486023 
	C328.014252,408.926788 327.901917,409.124878 327.538147,409.083069 
	C326.437042,409.058899 325.699738,409.076508 324.595825,409.059937 
	C323.493347,409.023315 322.757477,409.020874 321.656189,408.984467 
	C320.557983,408.944580 319.825256,408.938690 318.699371,408.897766 
	C317.267914,408.782318 316.229584,408.701904 315.191254,408.621460 
	C316.725037,406.382843 318.133789,404.044128 319.825378,401.931885 
	C321.785614,399.484100 323.994354,397.235382 326.586761,394.543335 
	C329.655762,394.021576 332.233246,393.856720 335.223694,393.767944 
	C336.753021,393.903198 337.869324,393.962341 338.985657,394.021545 
z"/>
<path fill="#375C76" opacity="1.000000" stroke="none" 
	d="
M339.351929,394.023224 
	C337.869324,393.962341 336.753021,393.903198 335.289795,393.436523 
	C335.926422,391.569061 336.813080,390.030884 337.914764,388.666351 
	C339.864807,386.251129 342.032440,384.006287 343.884796,381.522949 
	C344.188599,381.115631 343.345764,379.853058 343.032867,378.985748 
	C343.892517,377.299377 344.551575,375.466583 345.653442,373.957001 
	C347.972229,370.780365 350.523193,367.773254 353.034607,364.346436 
	C354.440948,363.948761 355.791565,363.901215 357.807495,363.878662 
	C358.649200,363.955688 358.825592,364.007690 358.945312,364.395142 
	C356.310577,367.690399 353.745148,370.661316 351.150604,373.606567 
	C348.977203,376.073761 347.919800,378.428711 351.601501,379.966888 
	C348.220734,384.759003 345.054962,389.246399 341.889191,393.733795 
	C341.165527,393.830841 340.441864,393.927887 339.351929,394.023224 
z"/>
<path fill="#3A82B7" opacity="1.000000" stroke="none" 
	d="
M328.062561,408.823700 
	C328.541809,408.746246 328.972687,408.771912 329.719727,408.870728 
	C329.027039,411.125641 328.474030,413.719818 326.934418,415.421143 
	C317.913696,425.389282 307.780334,434.101685 296.279907,441.131775 
	C294.323578,442.327637 292.198364,443.332489 290.032654,444.084198 
	C284.034485,446.166138 280.142975,443.822540 278.941376,437.627747 
	C278.691071,436.337128 278.327209,435.068604 278.008514,433.389587 
	C279.101624,432.254211 280.201843,431.519104 281.640381,431.036255 
	C281.989044,431.525269 281.999390,431.762024 281.726135,432.253540 
	C280.295868,436.265717 281.000702,439.960510 284.559631,441.428497 
	C287.693420,442.721100 291.694977,443.039886 294.329468,438.870972 
	C301.994598,433.420410 309.690186,428.526520 316.554871,422.660339 
	C320.969269,418.888153 324.161774,413.686096 327.901917,409.124878 
	C327.901917,409.124878 328.014252,408.926788 328.062561,408.823700 
z"/>
<path fill="#2C638B" opacity="1.000000" stroke="none" 
	d="
M322.021606,409.018433 
	C322.757477,409.020874 323.493347,409.023315 324.572388,409.400269 
	C317.066498,421.731659 305.975800,430.054779 293.711212,436.823944 
	C288.188232,439.872162 285.569427,437.920959 284.961609,431.611816 
	C284.873871,430.701111 284.309448,429.836334 283.965637,428.950287 
	C285.416534,427.972321 286.867432,426.994324 288.649353,426.367188 
	C289.328033,428.930725 289.005737,432.439392 290.182739,433.047943 
	C291.886963,433.928986 294.977264,433.287628 296.936127,432.263062 
	C300.424194,430.438629 303.879333,428.221313 306.680939,425.485077 
	C312.041748,420.249329 316.934570,414.534424 322.021606,409.018433 
z"/>
<path fill="#265679" opacity="1.000000" stroke="none" 
	d="
M321.656189,408.984436 
	C316.934570,414.534424 312.041748,420.249329 306.680939,425.485077 
	C303.879333,428.221313 300.424194,430.438629 296.936127,432.263062 
	C294.977264,433.287628 291.886963,433.928986 290.182739,433.047943 
	C289.005737,432.439392 289.328033,428.930725 288.984497,426.325439 
	C290.126709,425.046112 291.264771,424.159424 292.698029,423.554199 
	C293.836914,427.913452 296.520264,429.306763 299.948761,427.341888 
	C301.233917,426.605408 302.489410,425.720337 303.534882,424.678650 
	C308.761536,419.471008 313.913971,414.188782 319.092499,408.932770 
	C319.825256,408.938690 320.557983,408.944580 321.656189,408.984436 
z"/>
<path fill="#17354A" opacity="1.000000" stroke="none" 
	d="
M342.617249,378.987732 
	C343.345764,379.853058 344.188599,381.115631 343.884796,381.522949 
	C342.032440,384.006287 339.864807,386.251129 337.914764,388.666351 
	C336.813080,390.030884 335.926422,391.569061 334.876831,393.360413 
	C332.233246,393.856720 329.655762,394.021576 326.654510,394.207336 
	C326.198486,393.285431 325.754242,392.009918 326.202332,391.455139 
	C328.692444,388.371979 331.488129,385.536835 334.004974,382.473602 
	C336.178528,379.828156 338.731720,378.418579 342.617249,378.987732 
z"/>
<path fill="#326F9C" opacity="1.000000" stroke="none" 
	d="
M283.963226,428.977112 
	C284.309448,429.836334 284.873871,430.701111 284.961609,431.611816 
	C285.569427,437.920959 288.188232,439.872162 293.711212,436.823944 
	C305.975800,430.054779 317.066498,421.731659 324.939026,409.434448 
	C325.699738,409.076508 326.437042,409.058899 327.538147,409.083099 
	C324.161774,413.686096 320.969269,418.888153 316.554871,422.660339 
	C309.690186,428.526520 301.994598,433.420410 293.929382,438.913483 
	C285.605286,441.290436 284.151428,440.448364 282.845917,433.177887 
	C282.768799,432.748657 282.297546,432.390167 282.009705,431.998779 
	C281.999390,431.762024 281.989044,431.525269 281.957031,430.930450 
	C282.024719,430.334717 282.185150,430.163666 282.853333,429.937195 
	C283.527496,429.556061 283.765015,429.296936 284.002533,429.037811 
	C284.002533,429.037811 283.960815,429.003906 283.963226,428.977112 
z"/>
<path fill="#1C3E58" opacity="1.000000" stroke="none" 
	d="
M318.699371,408.897766 
	C313.913971,414.188782 308.761536,419.471008 303.534882,424.678650 
	C302.489410,425.720337 301.233917,426.605408 299.948761,427.341888 
	C296.520264,429.306763 293.836914,427.913452 292.992889,423.433685 
	C294.430328,422.030975 295.868164,421.030182 297.685303,420.343384 
	C299.301605,421.276794 301.311768,422.717743 301.658508,422.391388 
	C306.239563,418.079590 310.586609,413.519226 314.992188,409.020996 
	C314.992157,409.020996 315.094788,408.826050 315.143005,408.723755 
	C316.229584,408.701904 317.267914,408.782318 318.699371,408.897766 
z"/>
<path fill="#3A82B7" opacity="1.000000" stroke="none" 
	d="
M404.228638,260.995544 
	C399.987640,266.244110 395.746613,271.492706 391.327576,276.961609 
	C388.577148,273.096863 388.853943,270.266418 392.151642,267.327942 
	C396.097870,263.811523 399.658051,259.861877 403.722290,256.414917 
	C404.115662,258.151855 404.172119,259.573669 404.228638,260.995544 
z"/>
<path fill="#102432" opacity="1.000000" stroke="none" 
	d="
M403.970337,310.027924 
	C403.969543,307.960022 403.968750,305.892151 403.945435,303.378418 
	C406.394226,300.032318 408.865540,297.132080 411.621216,294.058594 
	C411.300781,297.349030 410.695923,300.812683 410.064117,304.654541 
	C410.023590,305.771210 410.010040,306.509705 409.636444,307.683594 
	C408.201813,311.092590 407.127228,314.066193 406.052673,317.039825 
	C406.047241,317.476776 406.041779,317.913757 405.733582,318.673584 
	C405.026855,318.981689 404.622955,318.966919 404.162659,318.626892 
	C404.078644,317.862488 404.051025,317.423279 404.033234,316.651245 
	C404.037476,315.874268 404.031891,315.430084 404.026794,314.572113 
	C404.008301,312.781525 403.989319,311.404724 403.970337,310.027924 
z"/>
<path fill="#17354A" opacity="1.000000" stroke="none" 
	d="
M314.581238,409.009399 
	C310.586609,413.519226 306.239563,418.079590 301.658508,422.391388 
	C301.311768,422.717743 299.301605,421.276794 298.019836,420.295532 
	C301.474976,416.655273 304.809357,413.166565 308.563019,410.210144 
	C309.912964,409.146912 312.271851,409.364685 314.581238,409.009399 
z"/>
<path fill="#377BAD" opacity="1.000000" stroke="none" 
	d="
M413.292023,250.213791 
	C412.270660,250.562469 411.532196,250.728592 410.793701,250.894714 
	C410.630127,250.643555 410.466583,250.392395 410.303009,250.141235 
	C415.605713,245.513321 420.908417,240.885406 424.643066,237.626038 
	C421.916046,240.682449 417.745483,245.356842 413.292023,250.213791 
z"/>
<path fill="#1C3E58" opacity="1.000000" stroke="none" 
	d="
M404.502228,260.821014 
	C404.172119,259.573669 404.115662,258.151855 404.045166,256.299286 
	C405.452454,254.460312 406.873749,253.052063 408.295044,251.643799 
	C408.856567,252.059662 409.418091,252.475510 409.979614,252.891357 
	C408.245026,255.476410 406.510437,258.061462 404.502228,260.821014 
z"/>
<path fill="#3B85BB" opacity="1.000000" stroke="none" 
	d="
M384.015961,285.022888 
	C384.104980,284.979736 384.179382,284.919708 384.109619,284.919617 
	C383.965485,284.979553 384.001312,285.006042 384.015961,285.022888 
z"/>
<path fill="#377BAD" opacity="1.000000" stroke="none" 
	d="
M283.746063,429.112274 
	C283.765015,429.296936 283.527496,429.556061 283.028778,429.888824 
	C283.008240,429.703888 283.248901,429.445312 283.746063,429.112274 
z"/>
<path fill="#162F41" opacity="1.000000" stroke="none" 
	d="
M404.219055,318.952118 
	C404.622955,318.966919 405.026855,318.981689 405.734619,319.001343 
	C405.716400,322.907867 405.394379,326.809570 404.721741,330.817627 
	C404.281158,329.873840 404.191193,328.823669 404.110199,326.952393 
	C404.079437,324.420807 404.039703,322.710419 404.029541,320.657867 
	C404.112396,319.861206 404.165710,319.406647 404.219055,318.952118 
z"/>
<path fill="#162F41" opacity="1.000000" stroke="none" 
	d="
M406.404358,316.963379 
	C407.127228,314.066193 408.201813,311.092590 409.630066,308.053375 
	C408.907837,310.954163 407.831940,313.920532 406.404358,316.963379 
z"/>
<path fill="#4C423F" opacity="1.000000" stroke="none" 
	d="
M285.369354,209.951355 
	C291.256958,199.842682 301.314758,196.462860 311.067047,191.743271 
	C313.932556,201.102417 316.659607,210.009293 319.386658,218.916183 
	C319.763245,218.838272 320.139862,218.760361 320.516449,218.682465 
	C322.020447,214.415634 323.524414,210.148819 325.023560,205.878479 
	C320.426910,200.997879 320.144684,199.254913 323.534912,196.711594 
	C326.956360,194.144867 329.252899,195.093338 333.085693,200.884903 
	C331.628082,202.511185 330.106995,204.208313 328.569489,205.923737 
	C330.084564,210.109192 331.601898,214.300980 333.119263,218.492767 
	C333.469604,218.580505 333.819977,218.668243 334.170319,218.755981 
	C336.870941,210.034836 339.571533,201.313675 342.409454,192.149094 
	C351.069153,195.360062 359.161285,198.938553 365.471924,205.705444 
	C371.833374,212.526871 370.224884,222.036423 361.458984,225.162964 
	C354.980286,227.473724 347.970642,229.338837 341.162506,229.461853 
	C327.749298,229.704239 314.309784,228.640137 300.886658,228.000488 
	C299.097748,227.915237 297.301147,227.272278 295.576050,226.687180 
	C286.243622,223.521942 284.267914,220.363327 285.369354,209.951355 
z"/>
<path fill="#4A403D" opacity="1.000000" stroke="none" 
	d="
M345.065796,140.008301 
	C353.051178,153.736710 349.379059,166.081833 341.863861,178.200821 
	C340.107483,181.033157 339.258606,184.416534 337.842529,187.477142 
	C337.245880,188.766785 336.488312,190.160843 335.413940,191.019470 
	C330.852509,194.664902 323.278625,194.770004 318.592865,191.275101 
	C317.468781,190.436691 315.887909,188.945892 316.004333,187.924728 
	C316.550537,183.134918 313.154083,180.427444 311.033264,176.970764 
	C304.782776,166.783264 301.650299,156.070389 306.323303,144.266266 
	C309.373230,136.562088 315.146576,132.246414 323.232758,131.369797 
	C331.751678,130.446259 339.496094,132.129089 345.065796,140.008301 
z"/>
<path fill="#4394D0" opacity="1.000000" stroke="none" 
	d="
M141.072388,57.067856 
	C144.327164,57.270260 147.172821,57.204536 149.898560,57.744278 
	C153.196167,58.397263 154.963364,60.682560 154.994370,64.148003 
	C155.026077,67.694031 153.625916,70.546280 150.027802,71.184799 
	C146.007431,71.898262 141.860413,71.898186 136.900330,72.274513 
	C136.900330,67.515335 136.715652,63.283028 137.067581,59.095821 
	C137.132294,58.326069 139.373505,57.739254 141.072388,57.067856 
z"/>
<path fill="#3A82B7" opacity="1.000000" stroke="none" 
	d="
M332.084656,409.183960 
	C332.163666,408.997223 332.328949,408.973816 332.739075,409.002197 
	C332.712952,409.151703 332.441956,409.249451 332.084656,409.183960 
z"/>
<path fill="#326F9C" opacity="1.000000" stroke="none" 
	d="
M404.000000,321.000000 
	C404.039703,322.710419 404.079437,324.420807 404.079254,326.556610 
	C399.800720,331.051453 395.325623,334.905518 391.377808,339.239838 
	C385.131104,346.098083 379.220642,353.263641 373.220459,360.343689 
	C372.612152,361.061432 372.363495,362.083984 371.912903,363.305878 
	C371.877869,363.646667 371.969025,363.792053 371.528046,363.793762 
	C368.474243,363.925446 365.861389,364.055450 362.962311,364.079193 
	C362.478943,363.921997 362.281860,363.871063 362.252686,363.609955 
	C362.942322,363.256256 363.463989,363.112701 364.347778,362.975647 
	C365.331299,362.795441 366.181213,362.807037 366.540619,362.392944 
	C375.118652,352.509796 383.546387,342.494446 392.225281,332.701508 
	C395.888000,328.568634 400.059692,324.886841 404.000000,321.000000 
z"/>
<path fill="#5C819C" opacity="1.000000" stroke="none" 
	d="
M362.084747,363.820099 
	C362.281860,363.871063 362.478943,363.921997 362.855774,364.403229 
	C359.621307,369.077789 356.207092,373.322052 352.356934,378.108276 
	C354.486328,378.496155 355.728821,378.722504 356.971313,378.948792 
	C354.944153,381.817810 352.851868,384.643707 350.915009,387.572449 
	C349.805725,389.249786 348.949066,391.094238 347.992371,393.215271 
	C346.256439,393.684875 344.506805,393.802734 342.323181,393.827179 
	C345.054962,389.246399 348.220734,384.759003 351.601501,379.966888 
	C347.919800,378.428711 348.977203,376.073761 351.150604,373.606567 
	C353.745148,370.661316 356.310577,367.690399 359.279022,364.373413 
	C360.110016,363.953522 360.550629,363.890839 361.264832,363.859863 
	C361.720581,363.867737 361.902649,363.843933 362.084747,363.820099 
z"/>
<path fill="#C9CCCD" opacity="1.000000" stroke="none" 
	d="
M357.388184,378.929016 
	C355.728821,378.722504 354.486328,378.496155 352.356934,378.108276 
	C356.207092,373.322052 359.621307,369.077789 363.142029,364.509521 
	C365.861389,364.055450 368.474243,363.925446 371.521179,363.879272 
	C368.894318,367.865723 365.826111,371.762756 362.778717,375.675995 
	C362.193481,376.427521 361.690033,377.242737 361.131714,378.352966 
	C360.011414,378.754669 358.908234,378.831940 357.388184,378.929016 
z"/>
<path fill="#1B3B54" opacity="1.000000" stroke="none" 
	d="
M360.991211,363.828156 
	C360.550629,363.890839 360.110016,363.953522 359.335724,364.037964 
	C358.825592,364.007690 358.649200,363.955688 358.210205,363.815735 
	C359.884827,360.760620 361.522247,357.536560 363.808868,354.868958 
	C376.572357,339.978790 389.491455,325.222046 402.374817,310.434875 
	C402.563965,310.217834 402.976501,310.195374 403.627563,310.054993 
	C403.989319,311.404724 404.008301,312.781525 403.656616,314.576569 
	C401.666473,316.025085 399.698761,316.749268 398.481873,318.133484 
	C387.572754,330.542786 376.730957,343.013245 366.036499,355.607605 
	C363.979919,358.029510 362.654114,361.071960 360.991211,363.828156 
z"/>
<path fill="#377BAD" opacity="1.000000" stroke="none" 
	d="
M281.726135,432.253540 
	C282.297546,432.390167 282.768799,432.748657 282.845917,433.177887 
	C284.151428,440.448364 285.605286,441.290436 293.607697,439.058044 
	C291.694977,443.039886 287.693420,442.721100 284.559631,441.428497 
	C281.000702,439.960510 280.295868,436.265717 281.726135,432.253540 
z"/>
<path fill="#265679" opacity="1.000000" stroke="none" 
	d="
M404.029541,320.657867 
	C400.059692,324.886841 395.888000,328.568634 392.225281,332.701508 
	C383.546387,342.494446 375.118652,352.509796 366.540619,362.392944 
	C366.181213,362.807037 365.331299,362.795441 364.386414,362.630493 
	C365.936218,359.791229 367.695312,357.207062 369.703094,354.833252 
	C377.259003,345.900055 384.782837,336.934875 392.553162,328.190094 
	C396.094727,324.204346 400.183044,320.704376 404.023376,316.984070 
	C404.051025,317.423279 404.078644,317.862488 404.162659,318.626892 
	C404.165710,319.406647 404.112396,319.861206 404.029541,320.657867 
z"/>
<path fill="#1F4461" opacity="1.000000" stroke="none" 
	d="
M404.033203,316.651245 
	C400.183044,320.704376 396.094727,324.204346 392.553162,328.190094 
	C384.782837,336.934875 377.259003,345.900055 369.703094,354.833252 
	C367.695312,357.207062 365.936218,359.791229 364.024323,362.623962 
	C363.463989,363.112701 362.942322,363.256256 362.252686,363.609955 
	C361.902649,363.843933 361.720581,363.867737 361.264832,363.859863 
	C362.654114,361.071960 363.979919,358.029510 366.036499,355.607605 
	C376.730957,343.013245 387.572754,330.542786 398.481873,318.133484 
	C399.698761,316.749268 401.666473,316.025085 403.656158,314.990356 
	C404.031891,315.430084 404.037476,315.874268 404.033203,316.651245 
z"/>
</svg>